<svg width="16" height="16" viewBox="0 0 16 16" fill="none" xmlns="http://www.w3.org/2000/svg">
<g clip-path="url(#clip0_1449_2666)">
<path d="M11.9603 11.9593C10.8207 12.828 9.43306 13.3093 8.00033 13.3327C3.33366 13.3327 0.666992 7.99935 0.666992 7.99935C1.49625 6.45395 2.64642 5.10375 4.04033 4.03935M6.60033 2.82602C7.05921 2.7186 7.52904 2.66491 8.00033 2.66602C12.667 2.66602 15.3337 7.99935 15.3337 7.99935C14.929 8.75642 14.4464 9.46917 13.8937 10.126M9.41366 9.41268C9.23056 9.60918 9.00976 9.76679 8.76443 9.8761C8.5191 9.98541 8.25426 10.0442 7.98572 10.0489C7.71718 10.0537 7.45043 10.0043 7.2014 9.90368C6.95236 9.80309 6.72614 9.65337 6.53622 9.46345C6.34631 9.27353 6.19659 9.04731 6.096 8.79828C5.99541 8.54924 5.94601 8.2825 5.95075 8.01396C5.95549 7.74541 6.01426 7.48058 6.12358 7.23525C6.23289 6.98992 6.39049 6.76911 6.58699 6.58602M0.666992 0.666016L15.3337 15.3327" stroke="#B2ADAD" stroke-width="2" stroke-linecap="round" stroke-linejoin="round"/>
</g>
<defs>
<clipPath id="clip0_1449_2666">
<rect width="16" height="16" fill="white"/>
</clipPath>
</defs>
</svg>
