<svg width="40" height="40" viewBox="0 0 40 40" fill="none" xmlns="http://www.w3.org/2000/svg">
<path d="M20.0013 20.0003V3.33366C20.0013 2.86144 20.161 2.4656 20.4805 2.14616C20.7999 1.82671 21.1957 1.66699 21.668 1.66699C22.1402 1.66699 22.536 1.82671 22.8555 2.14616C23.1749 2.4656 23.3346 2.86144 23.3346 3.33366V20.0003H20.0013ZM13.3346 20.0003V5.00033C13.3346 4.5281 13.4944 4.13227 13.8138 3.81283C14.1332 3.49338 14.5291 3.33366 15.0013 3.33366C15.4735 3.33366 15.8694 3.49338 16.1888 3.81283C16.5082 4.13227 16.668 4.5281 16.668 5.00033V20.0003H13.3346ZM20.8346 38.3337C16.8902 38.3337 13.543 36.9587 10.793 34.2087C8.04297 31.4587 6.66797 28.1114 6.66797 24.167V8.33366C6.66797 7.86144 6.82769 7.4656 7.14714 7.14616C7.46658 6.82671 7.86241 6.66699 8.33464 6.66699C8.80686 6.66699 9.20269 6.82671 9.52214 7.14616C9.84158 7.4656 10.0013 7.86144 10.0013 8.33366V24.167C10.0013 27.1948 11.0499 29.7573 13.1471 31.8545C15.2444 33.9517 17.8069 35.0003 20.8346 35.0003C23.8624 35.0003 26.4249 33.9517 28.5221 31.8545C30.6194 29.7573 31.668 27.1948 31.668 24.167V18.3337C31.1957 18.3337 30.7999 18.4934 30.4805 18.8128C30.161 19.1323 30.0013 19.5281 30.0013 20.0003V26.667H25.0013C24.0846 26.667 23.2999 26.9934 22.6471 27.6462C21.9944 28.2989 21.668 29.0837 21.668 30.0003V31.667H18.3346V30.0003C18.3346 28.167 18.9874 26.5975 20.293 25.292C21.5985 23.9864 23.168 23.3337 25.0013 23.3337H26.668V6.66699C26.668 6.19477 26.8277 5.79894 27.1471 5.47949C27.4666 5.16005 27.8624 5.00033 28.3346 5.00033C28.8069 5.00033 29.2027 5.16005 29.5221 5.47949C29.8416 5.79894 30.0013 6.19477 30.0013 6.66699V15.292C30.2791 15.2087 30.5499 15.1392 30.8138 15.0837C31.0777 15.0281 31.3624 15.0003 31.668 15.0003H35.0013V24.167C35.0013 28.1114 33.6263 31.4587 30.8763 34.2087C28.1263 36.9587 24.7791 38.3337 20.8346 38.3337Z" fill="#EA3D2F"/>
</svg>
