<svg width="40" height="40" viewBox="0 0 40 40" fill="none" xmlns="http://www.w3.org/2000/svg">
<g clip-path="url(#clip0_1582_3059)">
<path d="M26.668 35V31.6667C26.668 29.8986 25.9656 28.2029 24.7153 26.9526C23.4651 25.7024 21.7694 25 20.0013 25H8.33464C6.56653 25 4.87083 25.7024 3.62059 26.9526C2.37035 28.2029 1.66797 29.8986 1.66797 31.6667V35M28.3346 18.3333L31.668 21.6667L38.3346 15M20.8346 11.6667C20.8346 15.3486 17.8499 18.3333 14.168 18.3333C10.4861 18.3333 7.5013 15.3486 7.5013 11.6667C7.5013 7.98477 10.4861 5 14.168 5C17.8499 5 20.8346 7.98477 20.8346 11.6667Z" stroke="#0070E2" stroke-width="4" stroke-linecap="round" stroke-linejoin="round"/>
</g>
<defs>
<clipPath id="clip0_1582_3059">
<rect width="40" height="40" fill="white"/>
</clipPath>
</defs>
</svg>
